<?xml version="1.0" standalone="no"?>
<!DOCTYPE svg PUBLIC "-//W3C//DTD SVG 1.1//EN" "http://www.w3.org/Graphics/SVG/1.1/DTD/svg11.dtd" >
<svg xmlns="http://www.w3.org/2000/svg" xmlns:xlink="http://www.w3.org/1999/xlink" version="1.1">
<metadata>
Created by FontForge 20170731 at Mon Jul 31 22:07:29 2017
 By Aleksey,,,
2017 Iconian Fonts - www.iconian.com
</metadata>
<defs>
<font id="StrikeFighter" horiz-adv-x="822" >
  <font-face 
    font-family="Strike Fighter"
    font-weight="400"
    font-stretch="normal"
    units-per-em="1000"
    panose-1="0 0 0 0 0 0 0 0 0 0"
    ascent="800"
    descent="-200"
    x-height="649"
    cap-height="649"
    bbox="-81 -175 1488 860"
    underline-thickness="50"
    underline-position="-175"
    unicode-range="U+0020-2122"
  />
<missing-glyph horiz-adv-x="495" 
 />
    <glyph glyph-name=".notdef" horiz-adv-x="495" 
 />
    <glyph glyph-name=".null" horiz-adv-x="0" 
 />
    <glyph glyph-name="nonmarkingreturn" horiz-adv-x="495" 
 />
    <glyph glyph-name="space" unicode=" " horiz-adv-x="423" 
 />
    <glyph glyph-name="space" unicode="&#xa0;" horiz-adv-x="423" 
 />
    <glyph glyph-name="FL0021h" unicode="!" horiz-adv-x="260" 
d="M50 222v418l13 9h134l14 -9v-419l-9 -14h-139zM50 15v116l13 10h134l14 -10v-117l-9 -14h-139z" />
    <glyph glyph-name="FL0022h" unicode="&#x22;" horiz-adv-x="472" 
d="M261 436v204l14 9h134l14 -9v-126q0 -13 -7 -29t-18 -30.5t-24 -24t-25 -9.5h-74zM50 436v204l13 9h134l14 -9v-126q0 -13 -7 -29t-18 -30.5t-23.5 -24t-24.5 -9.5h-75z" />
    <glyph glyph-name="FL0025h" unicode="#" horiz-adv-x="768" 
d="M59 524h103v116l14 9h134l14 -9v-116h121v116l13 9h134l14 -9v-116h103l10 -11v-119l-10 -11h-103v-117h103l10 -11v-118l-10 -11h-103v-112l-9 -14h-139l-13 15v111h-121v-112l-9 -14h-139l-14 15v111h-103l-9 11v118l9 11h103v117h-103l-9 11v119zM324 383v-117h121
v117h-121z" />
    <glyph glyph-name="FL0024h" unicode="$" horiz-adv-x="735" 
d="M50 347v169q0 13 6.5 29t16.5 30.5t23 24t27 9.5h163v59l14 10h134l13 -10v-59h229l9 -14v-113l-10 -14h-228v-73h165q13 0 26 -9.5t23.5 -23.5t17 -30.5t6.5 -29.5v-168q0 -14 -6.5 -30t-17 -30t-23.5 -23.5t-26 -9.5h-165v-56l-8 -14h-139l-14 15v55h-228l-8 13v113
l9 14h227v73h-163q-14 0 -27 9.5t-23 24t-16.5 30.5t-6.5 29zM524 254h-77v-73h77v73zM211 468v-73h75v73h-75z" />
    <glyph glyph-name="FL002Ah" unicode="%" horiz-adv-x="1099" 
d="M209 19l486 621l14 9h170l14 -14l-486 -620l-14 -15h-175zM696 -50q-8 0 -15 5.5t-12.5 13t-9 16.5t-3.5 17v250q0 7 3.5 16.5t9 17t12.5 13t15 5.5h313q7 0 14.5 -5.5t13 -13t9 -17t3.5 -16.5v-250q0 -8 -3.5 -17t-9 -17t-13 -13t-14.5 -5h-313zM915 181h-125v-108h125
v108zM89 346q-8 0 -15 5t-12 13t-8.5 16.5t-3.5 16.5v250q0 7 3.5 16.5t8.5 17t12 13t15 5.5h313q7 0 14.5 -5.5t13.5 -13t9.5 -17t3.5 -16.5v-250q0 -8 -3.5 -17t-9.5 -16.5t-13.5 -12.5t-14.5 -5h-313zM308 576h-125v-108h125v108z" />
    <glyph glyph-name="FL0026h" unicode="&#x26;" horiz-adv-x="821" 
d="M781 384v-119l-10 -11h-51v-161q0 -14 -6.5 -30t-17 -30t-24 -23.5t-26.5 -9.5h-533q-14 0 -27 9.5t-23 23.5t-16.5 30t-6.5 30v172q0 3 6 11t14 17.5t16 18.5t12 13q-5 3 -13 12t-16 19.5t-13.5 19.5t-5.5 12v168q0 13 6.5 29.5t16.5 30.5t23 23.5t27 9.5h491
q13 0 26.5 -9.5t23.5 -23.5t16.5 -30.5t6.5 -29.5v-90l-9 -14h-138l-14 15v42h-315v-368h357v113h-306l-9 11v119l9 11h519z" />
    <glyph glyph-name="FL0027h" unicode="'" horiz-adv-x="260" 
d="M50 436v204l13 9h134l14 -9v-126q0 -13 -7 -29t-18 -30.5t-23.5 -24t-24.5 -9.5h-75z" />
    <glyph glyph-name="FL0028h" unicode="(" horiz-adv-x="435" 
d="M211 111v428h164l10 13v113l-9 14h-253q-14 0 -27 -9.5t-23 -23.5t-16.5 -30.5t-6.5 -29.5v-523q0 -14 6.5 -30t16.5 -30t23 -23.5t27 -9.5h253l9 14v113l-10 14h-164z" />
    <glyph glyph-name="FL0029h" unicode=")" horiz-adv-x="435" 
d="M224 111v428h-165l-9 13v113l8 14h254q13 0 26.5 -9.5t23.5 -23.5t16.5 -30.5t6.5 -29.5v-523q0 -14 -6.5 -30t-16.5 -30t-23.5 -23.5t-26.5 -9.5h-254l-8 14v113l9 14h165z" />
    <glyph glyph-name="FL0F98h" unicode="*" horiz-adv-x="309" 
d="M178 494l71 55l-32 36l52 16l-33 81l-52 -22l8 48h-88l6 -48l-45 22l-25 -81l45 -13l-41 -41l75 -53l31 44z" />
    <glyph glyph-name="FL002Bh" unicode="+" horiz-adv-x="499" 
d="M179 515l11 10h119l11 -10v-120h120l9 -11v-119l-9 -11h-120v-119l-11 -10h-119l-11 10v119h-120l-9 11v119l9 11h120v120z" />
    <glyph glyph-name="FL002Ch" unicode="," horiz-adv-x="260" 
d="M50 -68v199l13 10h134l14 -10v-121q0 -13 -7 -29t-18 -30.5t-23.5 -24t-24.5 -9.5h-75z" />
    <glyph glyph-name="FL002Dh" unicode="-" horiz-adv-x="444" 
d="M394 384v-119l-10 -11h-325l-9 11v119l9 11h325z" />
    <glyph glyph-name="FL002Eh" unicode="." horiz-adv-x="260" 
d="M50 15v116l13 10h134l14 -10v-117l-9 -14h-139z" />
    <glyph glyph-name="FL002Fh" unicode="/" horiz-adv-x="753" 
d="M35 20l486 620l14 9h170l14 -14l-486 -620l-14 -15h-175z" />
    <glyph glyph-name="FL004Fh" unicode="0" 
d="M123 0q-14 0 -27 9.5t-23 23.5t-16.5 30t-6.5 30v463q0 13 6.5 29.5t16.5 30.5t23 23.5t27 9.5h576q13 0 26.5 -9.5t23.5 -23.5t16.5 -30.5t6.5 -29.5v-463q0 -14 -6.5 -30t-16.5 -30t-23.5 -23.5t-26.5 -9.5h-576zM611 509h-400v-368h400v368z" />
    <glyph glyph-name="FL0031h" unicode="1" horiz-adv-x="344" 
d="M294 636v-622l-9 -14h-138l-14 15v494h-74l-9 11v119l9 10h226z" />
    <glyph glyph-name="FL0032h" unicode="2" horiz-adv-x="735" 
d="M685 347v209q0 13 -6.5 29.5t-17 30.5t-23.5 23.5t-26 9.5h-554l-8 -13v-113l9 -14h465v-114h-401q-14 0 -27 -9.5t-23 -23.5t-16.5 -30.5t-6.5 -29.5v-209q0 -14 6.5 -30t16.5 -30t23 -23.5t27 -9.5h553l9 14v113l-10 14h-464v113h401q13 0 26 9.5t23.5 24t17 30.5
t6.5 29z" />
    <glyph glyph-name="FL0033h" unicode="3" horiz-adv-x="737" 
d="M526 141v368h-467l-9 14v113l8 13h556q13 0 26 -9.5t23.5 -23.5t17 -30.5t6.5 -29.5v-168q0 -3 -6 -12t-14 -19.5t-16 -19.5t-12 -12q4 -4 12 -13t16 -18.5t14 -17.5t6 -11v-172q0 -14 -6.5 -30t-17 -30t-23.5 -23.5t-26 -9.5h-556l-8 14v113l9 14h467zM112 384l10 11
h352l10 -11v-119l-10 -11h-352l-10 11v119z" />
    <glyph glyph-name="FL0034h" unicode="4" horiz-adv-x="736" 
d="M474 395h-263v245l-14 9h-134l-13 -9v-371l13 -15h411l10 11v119zM525 640v-625l14 -15h138l9 14v626l-14 9h-133z" />
    <glyph glyph-name="FL0035h" unicode="5" horiz-adv-x="735" 
d="M50 264v372l13 13h583l9 -13v-113l-10 -14h-434v-114h401q13 0 26 -9.5t23.5 -23.5t17 -30.5t6.5 -29.5v-209q0 -14 -6.5 -30t-17 -30t-23.5 -23.5t-26 -9.5h-554l-8 14v113l9 14h465v113h-461z" />
    <glyph glyph-name="FL0036h" unicode="6" horiz-adv-x="818" 
d="M768 93q0 -14 -6.5 -30t-16.5 -30t-23.5 -23.5t-26.5 -9.5h-572q-14 0 -27 9.5t-23 23.5t-16.5 30t-6.5 30v463q0 13 6.5 29.5t16.5 30.5t23 23.5t27 9.5h572q13 0 26.5 -9.5t23.5 -23.5t16.5 -30.5t6.5 -29.5v-90l-9 -14h-138l-14 15v42h-396v-114h485q11 0 24 -10
t23.5 -24t17.5 -30.5t7 -29.5v-208zM607 254h-396v-113h396v113z" />
    <glyph glyph-name="FL0037h" unicode="7" horiz-adv-x="653" 
d="M604 517l-267 -517h-144q-6 0 -7.5 4t-1.5 9v14q0 5 1 9t5 11l228 447l-9 15h-350l-9 14v113l8 13h532l14 -14v-118z" />
    <glyph glyph-name="FL0038h" unicode="8" horiz-adv-x="821" 
d="M50 556q0 13 6.5 29.5t16.5 30.5t23 23.5t27 9.5h575q13 0 26.5 -9.5t23.5 -23.5t16.5 -30.5t6.5 -29.5v-168q0 -3 -6 -12t-13.5 -19t-16 -19.5t-12.5 -12.5q4 -4 12 -13t16 -18.5t14 -17.5t6 -11v-172q0 -14 -6.5 -30t-16.5 -30t-23.5 -23.5t-26.5 -9.5h-575
q-14 0 -27 9.5t-23 23.5t-16.5 30t-6.5 30v172q0 3 6 11t14 17.5t16 18.5t12 13q-5 3 -13 12t-16 19.5t-13.5 19.5t-5.5 12v168zM211 509v-368h399v113h-348l-10 11v119l10 11h348v114h-399z" />
    <glyph glyph-name="FL0039h" unicode="9" horiz-adv-x="818" 
d="M50 556q0 13 6.5 29.5t16.5 30.5t23 23.5t27 9.5h572q13 0 26.5 -9.5t23.5 -23.5t16.5 -30.5t6.5 -29.5v-463q0 -14 -6.5 -30t-16.5 -30t-23.5 -23.5t-26.5 -9.5h-572q-14 0 -27 9.5t-23 23.5t-16.5 30t-6.5 30v90l8 14h139l14 -15v-41h396v113h-485q-11 0 -24 10
t-23.5 24.5t-17.5 30.5t-7 29v208zM211 395h396v114h-396v-114z" />
    <glyph glyph-name="FL003Ah" unicode=":" horiz-adv-x="260" 
d="M50 15v116l13 10h134l14 -10v-117l-9 -14h-139zM50 369v116l13 10h134l14 -10v-117l-9 -14h-139z" />
    <glyph glyph-name="FL003Bh" unicode=";" horiz-adv-x="260" 
d="M50 369v116l13 10h134l14 -10v-117l-9 -14h-139zM50 -68v199l13 10h134l14 -10v-121q0 -13 -7 -29t-18 -30.5t-23.5 -24t-24.5 -9.5h-75z" />
    <glyph glyph-name="FL003Ch" unicode="&#x3c;" horiz-adv-x="513" 
d="M281 640l14 9h170l14 -14l-242 -308l242 -308l-9 -19h-175l-14 15l-246 312z" />
    <glyph glyph-name="FL003Dh" unicode="=" horiz-adv-x="496" 
d="M59 504h378l10 -11v-119l-10 -11h-378l-9 11v119zM59 286h378l10 -11v-119l-10 -10h-378l-9 10v119z" />
    <glyph glyph-name="FL003Eh" unicode="&#x3e;" horiz-adv-x="511" 
d="M233 640l244 -313l-244 -312l-14 -15h-175l-9 19l240 308l-240 308l14 14h170z" />
    <glyph glyph-name="FL0040h" unicode="?" horiz-adv-x="720" 
d="M101 222v80q0 13 6.5 29.5t17 30.5t23.5 23.5t26 9.5h335v114h-450l-9 14v113l8 13h539q13 0 26.5 -9.5t23.5 -23.5t16.5 -30.5t6.5 -29.5v-209q0 -13 -6.5 -29t-16.5 -30.5t-23.5 -24t-26.5 -9.5h-335v-33l-9 -14h-138zM101 15v116l14 10h134l13 -10v-117l-9 -14h-138z
" />
    <glyph glyph-name="FL0BEEh" unicode="@" horiz-adv-x="930" 
d="M859 96l10 -14v-113l-9 -14h-737q-14 0 -27 9.5t-23 23.5t-16.5 30.5t-6.5 30.5v552q0 13 6.5 29.5t16.5 30.5t23 23.5t27 9.5h684q13 0 26.5 -9.5t23.5 -23.5t16.5 -30.5t6.5 -29.5v-359q0 -14 -6.5 -30.5t-16.5 -30.5t-23.5 -23.5t-26.5 -9.5h-280v231h-125v-108h68
l14 -10v-99l-9 -14h-167q-8 0 -15 5.5t-12.5 13t-9 16.5t-3.5 17v250q0 7 3.5 16.5t9 17t12.5 13t15 5.5h313q7 0 14.5 -5.5t13 -13t9 -17t3.5 -16.5v-179h58v282h-508v-457h648z" />
    <glyph glyph-name="FL0041h" unicode="A" horiz-adv-x="869" 
d="M35 19l4 18l324 612h145l321 -602q4 -7 5 -11t1 -9v-14q0 -5 -1.5 -9t-7.5 -4h-159l-228 451l-5 1l-153 -291v-12q0 -8 6 -8h251l10 -13v-118l-10 -10h-494q-4 0 -6.5 7t-2.5 12z" />
    <glyph glyph-name="FL0042h" unicode="B" horiz-adv-x="821" 
d="M771 388v168q0 13 -6.5 29.5t-16.5 30.5t-23.5 23.5t-26.5 9.5h-635l-13 -14v-620l13 -15h635q13 0 26.5 9.5t23.5 23.5t16.5 30t6.5 30v172q0 3 -6 11t-14 17.5t-16 18.5t-12 13q4 3 12.5 12.5t16 19.5t13.5 19t6 12zM610 254v-113h-399v368h399v-114h-348l-10 -11v-119
l10 -11h348z" />
    <glyph glyph-name="FL0043h" unicode="C" horiz-adv-x="735" 
d="M211 509v-368h313v41l14 15h138l9 -14v-90q0 -14 -6.5 -30t-17 -30t-23.5 -23.5t-26 -9.5h-489q-14 0 -27 9.5t-23 23.5t-16.5 30t-6.5 30v463q0 13 6.5 29.5t16.5 30.5t23 23.5t27 9.5h489q13 0 26 -9.5t23.5 -23.5t17 -30.5t6.5 -29.5v-90l-9 -14h-138l-14 15v42h-313z
" />
    <glyph glyph-name="FL0044h" unicode="D" horiz-adv-x="823" 
d="M50 15v625l14 9h606q13 0 31 -13t34 -31.5t27 -40t11 -37.5v-404q0 -17 -11 -38.5t-27 -40t-34 -31.5t-31 -13h-606zM212 141h359q10 0 17.5 5t12.5 11.5t8 14t3 13.5v284q0 13 -13.5 26.5t-26.5 13.5h-360v-368z" />
    <glyph glyph-name="FL0045h" unicode="E" horiz-adv-x="733" 
d="M50 640l13 9h611l9 -13v-113l-10 -14h-453l-9 -15v-339l9 -14h453l10 -14v-113l-9 -14h-611l-13 15v625zM621 384v-119l-10 -11h-349l-10 11v119l10 11h349z" />
    <glyph glyph-name="FL0046h" unicode="F" horiz-adv-x="681" 
d="M50 10v625l13 14h560l9 -13v-113l-10 -14h-402l-9 -15v-484l-14 -10h-134zM559 395l10 -11v-119l-10 -11h-297l-10 11v119l10 11h297z" />
    <glyph glyph-name="FL0047h" unicode="G" 
d="M772 93q0 -14 -6.5 -30t-16.5 -30t-23.5 -23.5t-26.5 -9.5h-576q-14 0 -27 9.5t-23 23.5t-16.5 30t-6.5 30v463q0 13 6.5 29.5t16.5 30.5t23 23.5t27 9.5h576q13 0 26.5 -9.5t23.5 -23.5t16.5 -30.5t6.5 -29.5v-90l-9 -14h-138l-14 15v42h-400v-368h400v113h-304l-10 11
v119l10 11h455l10 -11v-291z" />
    <glyph glyph-name="FL0048h" unicode="H" horiz-adv-x="783" 
d="M522 395h-311v245l-14 9h-134l-13 -9v-625l13 -15h139l9 14v240h311l10 11v119zM572 640v-625l14 -15h139l9 14v626l-14 9h-134z" />
    <glyph glyph-name="FL0049h" unicode="I" horiz-adv-x="260" 
d="M50 15v625l13 9h134l14 -9v-626l-9 -14h-139z" />
    <glyph glyph-name="FL004Ah" unicode="J" horiz-adv-x="708" 
d="M123 0q-14 0 -27 9.5t-23 23.5t-16.5 30t-6.5 30v228l13 10h134l14 -10v-180h286v499l14 9h134l13 -9v-547q0 -14 -6.5 -30t-16.5 -30t-23.5 -23.5t-26.5 -9.5h-462z" />
    <glyph glyph-name="FL004Bh" unicode="K" horiz-adv-x="768" 
d="M261 395h83l192 245l13 9h171l14 -14l-239 -308l239 -308l-9 -20h-177l-201 255h-86l-10 11v119zM211 640v-625l-14 -15h-139l-8 14v626l13 9h134z" />
    <glyph glyph-name="FL004Ch" unicode="L" horiz-adv-x="681" 
d="M50 15v625l13 9h134l14 -9v-485l9 -14h402l10 -14v-113l-9 -14h-560z" />
    <glyph glyph-name="FL004Dh" unicode="M" horiz-adv-x="992" 
d="M542 1h-92l-239 400v-387l-9 -14h-139l-13 15v625l13 9h180l16 -7l237 -398l237 398l16 7h180l13 -9v-625l-13 -15h-139l-9 14v387z" />
    <glyph glyph-name="FL004Eh" unicode="N" horiz-adv-x="805" 
d="M590 15l18 -15h138l9 14v626l-13 9h-134l-14 -9v-397l-380 399l-17 7h-134l-13 -9v-625l13 -15h139l9 14v395z" />
    <glyph glyph-name="FL0050h" unicode="O" 
d="M123 0q-14 0 -27 9.5t-23 23.5t-16.5 30t-6.5 30v463q0 13 6.5 29.5t16.5 30.5t23 23.5t27 9.5h576q13 0 26.5 -9.5t23.5 -23.5t16.5 -30.5t6.5 -29.5v-463q0 -14 -6.5 -30t-16.5 -30t-23.5 -23.5t-26.5 -9.5h-576zM611 509h-400v-368h400v368z" />
    <glyph glyph-name="FL0051h" unicode="P" horiz-adv-x="761" 
d="M550 373v136h-339v-499l-14 -10h-134l-13 10v625l13 14h576q13 0 26 -9.5t23.5 -23.5t17 -30.5t6.5 -29.5v-230q0 -14 -6.5 -30t-17 -30t-23.5 -23.5t-26 -9.5h-377l-10 11v118l10 11h288z" />
    <glyph glyph-name="FL0052h" unicode="Q" 
d="M481 -87v87h218q13 0 26.5 9.5t23.5 23.5t16.5 30t6.5 30v463q0 13 -6.5 29.5t-16.5 30.5t-23.5 23.5t-26.5 9.5h-576q-14 0 -27 -9.5t-23 -23.5t-16.5 -30.5t-6.5 -29.5v-463q0 -14 6.5 -30t16.5 -30t23 -23.5t27 -9.5h218v-87l10 -10h119zM611 509v-368h-130v178
l-11 10h-119l-10 -10v-178h-130v368h400z" />
    <glyph glyph-name="FL0053h" unicode="R" horiz-adv-x="761" 
d="M719 15v111l-15 15h-57l-63 79l-5 10q15 1 36.5 6.5t41.5 15t35.5 23t19.5 30.5v251q0 13 -6.5 29.5t-17 30.5t-23.5 23.5t-26 9.5h-576l-13 -14v-625l13 -10h134l14 10v499h339v-125l-7 -11h-251q-11 0 -16 -8t-5 -17l274 -338q1 -1 7 -5.5t7 -4.5h145z" />
    <glyph glyph-name="FL0054h" unicode="S" horiz-adv-x="735" 
d="M50 347v209q0 13 6.5 29.5t16.5 30.5t23 23.5t27 9.5h553l9 -13v-113l-10 -14h-464v-114h401q13 0 26 -9.5t23.5 -23.5t17 -30.5t6.5 -29.5v-209q0 -14 -6.5 -30t-17 -30t-23.5 -23.5t-26 -9.5h-554l-8 14v113l9 14h465v113h-401q-14 0 -27 9.5t-23 24t-16.5 30.5
t-6.5 29z" />
    <glyph glyph-name="FL0055h" unicode="T" horiz-adv-x="735" 
d="M685 524l-14 -15h-224v-495l-8 -14h-139l-14 15v494h-228l-8 14v113l9 13h612l14 -14v-111z" />
    <glyph glyph-name="FL0056h" unicode="U" 
d="M123 0q-14 0 -27 9.5t-23 23.5t-16.5 30t-6.5 30v547l13 9h134l14 -9v-499h400v499l14 9h133l14 -9v-547q0 -14 -6.5 -30t-16.5 -30t-23.5 -23.5t-26.5 -9.5h-576z" />
    <glyph glyph-name="FL0057h" unicode="V" horiz-adv-x="855" 
d="M355 0h145l317 603q3 5 3.5 8.5t0.5 6.5v19q0 5 -1.5 8.5t-7.5 3.5h-159l-222 -451l-4 -1l-224 452h-159q-6 0 -7.5 -3.5t-1.5 -8.5v-19q0 -3 0.5 -6.5t3.5 -8.5z" />
    <glyph glyph-name="FL0058h" unicode="W" horiz-adv-x="1180" 
d="M680 0l-90 171l-90 -171h-145l-316 603q-3 5 -3.5 8.5t-0.5 6.5v19q0 5 1.5 8.5t7.5 3.5h159l224 -452l4 1l70 143l-138 262q-3 5 -3.5 8.5t-0.5 6.5v19q0 5 1.5 8.5t7.5 3.5h160l223 -452l4 1l223 451h159q8 0 8 -12v-19q0 -3 -0.5 -6.5t-3.5 -8.5l-316 -603h-145z" />
    <glyph glyph-name="FL0059h" unicode="X" horiz-adv-x="753" 
d="M233 640l143 -185l145 185l14 9h170l14 -14l-242 -308l242 -308l-9 -19h-175l-14 15l-145 183l-143 -183l-14 -15h-175l-9 19l240 308l-240 308l14 14h170z" />
    <glyph glyph-name="FL005Ah" unicode="Y" horiz-adv-x="741" 
d="M618 0q13 0 26 9.5t23.5 23.5t17 30t6.5 30v547l-14 9h-133l-14 -9v-499h-471l-9 -14v-113l8 -14h560zM488 270v111l-14 15h-262v244l-14 9h-134l-13 -9v-292q0 -13 6.5 -29t16.5 -30.5t23 -24t27 -9.5h350z" />
    <glyph glyph-name="FL005Ch" unicode="Z" horiz-adv-x="681" 
d="M632 635v-127l-14 -10l-341 -343l9 -14h336l10 -14v-113l-9 -14h-560l-13 15v126l13 9l344 344l-9 15h-339l-9 14v113l8 13h560z" />
    <glyph glyph-name="FL005Bh" unicode="[" horiz-adv-x="435" 
d="M211 111v428h164l10 13v113l-9 14h-313l-13 -9v-690l13 -10h313l9 14v113l-10 14h-164z" />
    <glyph glyph-name="FL00B9h" unicode="\" horiz-adv-x="753" 
d="M719 20l-486 620l-14 9h-170l-14 -14l486 -620l14 -15h175z" />
    <glyph glyph-name="FL005Dh" unicode="]" horiz-adv-x="435" 
d="M224 111v428h-164l-10 13v113l9 14h313l13 -9v-690l-13 -10h-313l-9 14v113l10 14h164z" />
    <glyph glyph-name="FL005Eh" unicode="^" horiz-adv-x="869" 
d="M835 19l-4 18l-324 612h-145l-321 -602q-4 -7 -5 -11t-1 -9v-14q0 -5 1.5 -9t7.5 -4h159l228 451l5 1l153 -291v-12q0 -8 -6 -8h-251l-10 -13v-118l10 -10h494q4 0 6.5 7t2.5 12z" />
    <glyph glyph-name="FL005Fh" unicode="_" horiz-adv-x="565" 
d="M516 119v-119l-10 -11h-447l-9 11v119l9 11h447z" />
    <glyph glyph-name="FL0060h" unicode="`" horiz-adv-x="276" 
d="M162 850l65 -115l-10 -15h-137l-14 10l-75 116l9 14h140z" />
    <glyph glyph-name="FL0061h" unicode="a" horiz-adv-x="869" 
d="M35 19l4 18l324 612h145l321 -602q4 -7 5 -11t1 -9v-14q0 -5 -1.5 -9t-7.5 -4h-159l-228 451l-5 1l-153 -291v-12q0 -8 6 -8h251l10 -13v-118l-10 -10h-494q-4 0 -6.5 7t-2.5 12z" />
    <glyph glyph-name="FL0062h" unicode="b" horiz-adv-x="821" 
d="M771 388v168q0 13 -6.5 29.5t-16.5 30.5t-23.5 23.5t-26.5 9.5h-635l-13 -14v-620l13 -15h635q13 0 26.5 9.5t23.5 23.5t16.5 30t6.5 30v172q0 3 -6 11t-14 17.5t-16 18.5t-12 13q4 3 12.5 12.5t16 19.5t13.5 19t6 12zM610 254v-113h-399v368h399v-114h-348l-10 -11v-119
l10 -11h348z" />
    <glyph glyph-name="FL0063h" unicode="c" horiz-adv-x="735" 
d="M211 509v-368h313v41l14 15h138l9 -14v-90q0 -14 -6.5 -30t-17 -30t-23.5 -23.5t-26 -9.5h-489q-14 0 -27 9.5t-23 23.5t-16.5 30t-6.5 30v463q0 13 6.5 29.5t16.5 30.5t23 23.5t27 9.5h489q13 0 26 -9.5t23.5 -23.5t17 -30.5t6.5 -29.5v-90l-9 -14h-138l-14 15v42h-313z
" />
    <glyph glyph-name="FL0064h" unicode="d" horiz-adv-x="823" 
d="M50 15v625l14 9h606q13 0 31 -13t34 -31.5t27 -40t11 -37.5v-404q0 -17 -11 -38.5t-27 -40t-34 -31.5t-31 -13h-606zM212 141h359q10 0 17.5 5t12.5 11.5t8 14t3 13.5v284q0 13 -13.5 26.5t-26.5 13.5h-360v-368z" />
    <glyph glyph-name="FL0065h" unicode="e" horiz-adv-x="733" 
d="M50 640l13 9h611l9 -13v-113l-10 -14h-453l-9 -15v-339l9 -14h453l10 -14v-113l-9 -14h-611l-13 15v625zM621 384v-119l-10 -11h-349l-10 11v119l10 11h349z" />
    <glyph glyph-name="FL0066h" unicode="f" horiz-adv-x="681" 
d="M50 10v625l13 14h560l9 -13v-113l-10 -14h-402l-9 -15v-484l-14 -10h-134zM559 395l10 -11v-119l-10 -11h-297l-10 11v119l10 11h297z" />
    <glyph glyph-name="FL00B6h" unicode="g" 
d="M772 93q0 -14 -6.5 -30t-16.5 -30t-23.5 -23.5t-26.5 -9.5h-576q-14 0 -27 9.5t-23 23.5t-16.5 30t-6.5 30v463q0 13 6.5 29.5t16.5 30.5t23 23.5t27 9.5h576q13 0 26.5 -9.5t23.5 -23.5t16.5 -30.5t6.5 -29.5v-90l-9 -14h-138l-14 15v42h-400v-368h400v113h-304l-10 11
v119l10 11h455l10 -11v-291z" />
    <glyph glyph-name="FL0068h" unicode="h" horiz-adv-x="783" 
d="M522 395h-311v245l-14 9h-134l-13 -9v-625l13 -15h139l9 14v240h311l10 11v119zM572 640v-625l14 -15h139l9 14v626l-14 9h-134z" />
    <glyph glyph-name="i" unicode="i" horiz-adv-x="260" 
d="M50 15v625l13 9h134l14 -9v-626l-9 -14h-139z" />
    <glyph glyph-name="FL006Ah" unicode="j" horiz-adv-x="708" 
d="M123 0q-14 0 -27 9.5t-23 23.5t-16.5 30t-6.5 30v228l13 10h134l14 -10v-180h286v499l14 9h134l13 -9v-547q0 -14 -6.5 -30t-16.5 -30t-23.5 -23.5t-26.5 -9.5h-462z" />
    <glyph glyph-name="FL006Bh" unicode="k" horiz-adv-x="768" 
d="M261 395h83l192 245l13 9h171l14 -14l-239 -308l239 -308l-9 -20h-177l-201 255h-86l-10 11v119zM211 640v-625l-14 -15h-139l-8 14v626l13 9h134z" />
    <glyph glyph-name="FL006Ch" unicode="l" horiz-adv-x="681" 
d="M50 15v625l13 9h134l14 -9v-485l9 -14h402l10 -14v-113l-9 -14h-560z" />
    <glyph glyph-name="FL006Dh" unicode="m" horiz-adv-x="992" 
d="M542 1h-92l-239 400v-387l-9 -14h-139l-13 15v625l13 9h180l16 -7l237 -398l237 398l16 7h180l13 -9v-625l-13 -15h-139l-9 14v387z" />
    <glyph glyph-name="FL006Eh" unicode="n" horiz-adv-x="805" 
d="M590 15l18 -15h138l9 14v626l-13 9h-134l-14 -9v-397l-380 399l-17 7h-134l-13 -9v-625l13 -15h139l9 14v395z" />
    <glyph glyph-name="FL006Fh" unicode="o" 
d="M123 0q-14 0 -27 9.5t-23 23.5t-16.5 30t-6.5 30v463q0 13 6.5 29.5t16.5 30.5t23 23.5t27 9.5h576q13 0 26.5 -9.5t23.5 -23.5t16.5 -30.5t6.5 -29.5v-463q0 -14 -6.5 -30t-16.5 -30t-23.5 -23.5t-26.5 -9.5h-576zM611 509h-400v-368h400v368z" />
    <glyph glyph-name="FL0070h" unicode="p" horiz-adv-x="761" 
d="M550 373v136h-339v-499l-14 -10h-134l-13 10v625l13 14h576q13 0 26 -9.5t23.5 -23.5t17 -30.5t6.5 -29.5v-230q0 -14 -6.5 -30t-17 -30t-23.5 -23.5t-26 -9.5h-377l-10 11v118l10 11h288z" />
    <glyph glyph-name="FL0071h" unicode="q" 
d="M481 -87v87h218q13 0 26.5 9.5t23.5 23.5t16.5 30t6.5 30v463q0 13 -6.5 29.5t-16.5 30.5t-23.5 23.5t-26.5 9.5h-576q-14 0 -27 -9.5t-23 -23.5t-16.5 -30.5t-6.5 -29.5v-463q0 -14 6.5 -30t16.5 -30t23 -23.5t27 -9.5h218v-87l10 -10h119zM611 509v-368h-130v178
l-11 10h-119l-10 -10v-178h-130v368h400z" />
    <glyph glyph-name="FL0072h" unicode="r" horiz-adv-x="761" 
d="M719 15v111l-15 15h-57l-63 79l-5 10q15 1 36.5 6.5t41.5 15t35.5 23t19.5 30.5v251q0 13 -6.5 29.5t-17 30.5t-23.5 23.5t-26 9.5h-576l-13 -14v-625l13 -10h134l14 10v499h339v-125l-7 -11h-251q-11 0 -16 -8t-5 -17l274 -338q1 -1 7 -5.5t7 -4.5h145z" />
    <glyph glyph-name="FL0073h" unicode="s" horiz-adv-x="735" 
d="M50 347v209q0 13 6.5 29.5t16.5 30.5t23 23.5t27 9.5h553l9 -13v-113l-10 -14h-464v-114h401q13 0 26 -9.5t23.5 -23.5t17 -30.5t6.5 -29.5v-209q0 -14 -6.5 -30t-17 -30t-23.5 -23.5t-26 -9.5h-554l-8 14v113l9 14h465v113h-401q-14 0 -27 9.5t-23 24t-16.5 30.5
t-6.5 29z" />
    <glyph glyph-name="FL0074h" unicode="t" horiz-adv-x="735" 
d="M685 524l-14 -15h-224v-495l-8 -14h-139l-14 15v494h-228l-8 14v113l9 13h612l14 -14v-111z" />
    <glyph glyph-name="FL0075h" unicode="u" 
d="M123 0q-14 0 -27 9.5t-23 23.5t-16.5 30t-6.5 30v547l13 9h134l14 -9v-499h400v499l14 9h133l14 -9v-547q0 -14 -6.5 -30t-16.5 -30t-23.5 -23.5t-26.5 -9.5h-576z" />
    <glyph glyph-name="FL0076h" unicode="v" horiz-adv-x="855" 
d="M355 0h145l317 603q3 5 3.5 8.5t0.5 6.5v19q0 5 -1.5 8.5t-7.5 3.5h-159l-222 -451l-4 -1l-224 452h-159q-6 0 -7.5 -3.5t-1.5 -8.5v-19q0 -3 0.5 -6.5t3.5 -8.5z" />
    <glyph glyph-name="FL0077h" unicode="w" horiz-adv-x="1180" 
d="M680 0l-90 171l-90 -171h-145l-316 603q-3 5 -3.5 8.5t-0.5 6.5v19q0 5 1.5 8.5t7.5 3.5h159l224 -452l4 1l70 143l-138 262q-3 5 -3.5 8.5t-0.5 6.5v19q0 5 1.5 8.5t7.5 3.5h160l223 -452l4 1l223 451h159q8 0 8 -12v-19q0 -3 -0.5 -6.5t-3.5 -8.5l-316 -603h-145z" />
    <glyph glyph-name="FL0078h" unicode="x" horiz-adv-x="753" 
d="M233 640l143 -185l145 185l14 9h170l14 -14l-242 -308l242 -308l-9 -19h-175l-14 15l-145 183l-143 -183l-14 -15h-175l-9 19l240 308l-240 308l14 14h170z" />
    <glyph glyph-name="FL0079h" unicode="y" horiz-adv-x="741" 
d="M618 0q13 0 26 9.5t23.5 23.5t17 30t6.5 30v547l-14 9h-133l-14 -9v-499h-471l-9 -14v-113l8 -14h560zM488 270v111l-14 15h-262v244l-14 9h-134l-13 -9v-292q0 -13 6.5 -29t16.5 -30.5t23 -24t27 -9.5h350z" />
    <glyph glyph-name="FL007Ah" unicode="z" horiz-adv-x="681" 
d="M632 635v-127l-14 -10l-341 -343l9 -14h336l10 -14v-113l-9 -14h-560l-13 15v126l13 9l344 344l-9 15h-339l-9 14v113l8 13h560z" />
    <glyph glyph-name="FL007Bh" unicode="{" horiz-adv-x="527" 
d="M159 586v-191h-100l-9 -11v-119l9 -11h100v-191q0 -14 6.5 -30t16.5 -30t23 -23.5t27 -9.5h236l9 14v113l-10 14h-147v428h147l10 13v113l-9 14h-236q-14 0 -27 -9.5t-23 -23.5t-16.5 -30.5t-6.5 -29.5z" />
    <glyph glyph-name="FL007Ch" unicode="|" horiz-adv-x="260" 
d="M50 -68v791l13 9h134l14 -9v-792l-9 -14h-139z" />
    <glyph glyph-name="FL007Dh" unicode="}" horiz-adv-x="527" 
d="M368 586v-191h100l9 -11v-119l-9 -11h-100v-191q0 -14 -6.5 -30t-16.5 -30t-23.5 -23.5t-26.5 -9.5h-236l-9 14v113l10 14h147v428h-147l-10 13v113l9 14h236q13 0 26.5 -9.5t23.5 -23.5t16.5 -30.5t6.5 -29.5z" />
    <glyph glyph-name="FL007Eh" unicode="~" horiz-adv-x="444" 
d="M237 385l26 -57l24 58l13 9h86l8 -15l-48 -115l-9 -10h-115l-15 10l-26 57l-24 -58l-13 -9h-85l-9 15l48 115l9 10h115z" />
    <glyph glyph-name="FL007Fh" horiz-adv-x="200" 
 />
    <glyph glyph-name="FL00A1h" unicode="&#xa1;" horiz-adv-x="260" 
d="M50 428v-418l13 -10h134l14 10v419l-9 14h-139zM50 635v-116l13 -10h134l14 10v117l-9 13h-139z" />
    <glyph glyph-name="FL00A2h" unicode="&#xa2;" horiz-adv-x="735" 
d="M50 347v150q0 13 6.5 29.5t16.5 30.5t23 23.5t27 9.5h163v50l14 9h134l13 -9v-50h229l9 -14v-113l-10 -14h-228v-54h165q13 0 26 -9.5t23.5 -23.5t17 -30.5t6.5 -29.5v-150q0 -14 -6.5 -30t-17 -30t-23.5 -23.5t-26 -9.5h-165v-45l-8 -14h-139l-14 15v44h-228l-8 14v113
l9 14h227v54h-163q-14 0 -27 9.5t-23 24t-16.5 30.5t-6.5 29zM524 254h-77v-54h77v54zM211 449v-54h75v54h-75z" />
    <glyph glyph-name="FL00A3h" unicode="&#xa3;" horiz-adv-x="766" 
d="M59 395h99v161q0 13 6.5 29.5t17 30.5t23.5 23.5t27 9.5h225l9 -13v-113l-10 -14h-136v-368h387l10 -14v-113l-9 -14h-649l-9 11v119l9 11h99v113h-99l-9 11v119zM574 395l10 -11v-119l-10 -11h-203l-10 11v119l10 11h203z" />
    <glyph glyph-name="FL00A4h" unicode="&#xa4;" horiz-adv-x="753" 
d="M233 640l105 -135h77l106 135l14 9h170l14 -14l-146 -187v-244l146 -185l-9 -19h-175l-14 15l-108 136h-73l-107 -136l-14 -15h-175l-9 19l145 186v243l-145 187l14 14h170zM439 382h-125v-108h125v108z" />
    <glyph glyph-name="FL00A5h" unicode="&#xa5;" horiz-adv-x="783" 
d="M197 188h114v43h-114l-10 11v118l10 11h58l-205 264l13 14h171l14 -9l143 -185l145 185l13 9h171l14 -14l-207 -264h59l10 -11v-118l-10 -11h-114v-43h114l10 -11v-119l-10 -10h-114v-34l-9 -14h-138l-14 15v33h-114l-10 10v119z" />
    <glyph glyph-name="FL00A6h" unicode="&#xa6;" horiz-adv-x="260" 
d="M50 -102v855l13 10h134l14 -10v-856l-9 -14h-139z" />
    <glyph glyph-name="FL00A7h" unicode="&#xa7;" horiz-adv-x="735" 
d="M50 250v345q0 13 6.5 29.5t16.5 30.5t23 23.5t27 9.5h553l9 -14v-113l-10 -14h-464v-54h401q13 0 26 -9.5t23.5 -23.5t17 -30.5t6.5 -29.5v-345q0 -14 -6.5 -30t-17 -30t-23.5 -23.5t-26 -9.5h-554l-8 14v113l9 14h465v54h-401q-14 0 -27 9.5t-23 24t-16.5 30.5t-6.5 29z
M211 352v-54h313v54h-313z" />
    <glyph glyph-name="FL00AAh" unicode="&#xa8;" horiz-adv-x="523" 
d="M50 735v115l13 10h134l14 -10v-116l-9 -14h-139zM312 735v115l14 10h133l14 -10v-116l-9 -14h-138z" />
    <glyph glyph-name="FL00A9h" unicode="&#xa9;" horiz-adv-x="277" 
d="M139 701q-24 0 -49 -13q-13 -7 -22 -16.5t-16 -20.5q-5 -12 -8.5 -23.5t-3.5 -25.5q0 -27 12 -49q8 -12 17 -20t20 -16q25 -13 50 -13q1 0 13 2t35 11q13 8 22 16t15 20q14 26 14 49q0 26 -14 49q-11 23 -38 37q-22 13 -47 13zM139 685q19 0 39 -11q21 -11 32 -30.5
t11 -41.5q0 -20 -11 -40q-12 -21 -31 -30q-20 -11 -40 -11q-5 0 -36 9l-6 2q-20 13 -30 30q-11 20 -11 40q0 21 11 41q11 21 31 31.5t41 10.5zM170 587q-6 -25 -32 -25q-33 0 -33 40q0 41 35 41q19 0 28 -19l16 3q-10 31 -44 31q-25 0 -39 -14t-14 -42q0 -27 14 -42t38 -15
q37 0 47 37z" />
    <glyph glyph-name="FL00ABh" unicode="&#xaa;" horiz-adv-x="869" 
d="M835 19l-4 18l-325 612h-145l-320 -602q-4 -7 -5 -11t-1 -9v-14q0 -5 1.5 -9t7.5 -4h158l229 451l5 1l152 -291v-12q0 -8 -6 -8h-250l-11 -13v-118l11 -10h494q4 0 6.5 7t2.5 12z" />
    <glyph glyph-name="FL00ACh" unicode="&#xab;" horiz-adv-x="866" 
d="M388 327l246 313l13 9h171l14 -14l-242 -308l242 -308l-9 -19h-176l-13 15zM35 327l245 313l14 9h170l14 -14l-241 -308l241 -308l-9 -19h-175l-14 15z" />
    <glyph glyph-name="FL00ADh" unicode="&#xac;" horiz-adv-x="499" 
d="M59 395h381l9 -11v-249l-10 -10h-119l-11 10v119h-250l-9 11v119z" />
    <glyph glyph-name="FL00AEh" unicode="&#xad;" horiz-adv-x="356" 
d="M307 384v-119l-10 -11h-238l-9 11v119l9 11h238z" />
    <glyph glyph-name="FL00AFh" unicode="&#xae;" horiz-adv-x="277" 
d="M139 701q-24 0 -49 -13q-13 -7 -22 -16.5t-16 -20.5q-5 -12 -8.5 -23.5t-3.5 -25.5q0 -27 12 -49q8 -11 17.5 -20t19.5 -16q22 -13 50 -13q1 0 14.5 1.5t33.5 11.5q27 14 37 36q14 26 14 49q0 26 -14 49q-11 23 -38 37q-22 13 -47 13zM139 685q19 0 39 -11
q21 -11 32 -30.5t11 -41.5l-3 -10.5t-8 -30.5q-7 -10 -15 -17t-16 -12q-20 -11 -40 -11q-5 0 -36 9l-6 2q-22 13 -30 29q-5 20 -8 30.5l-3 10.5q0 21 11 41q11 21 31 31.5t41 10.5zM96 548h17v45h10q9 0 13 -4q8 -3 18 -25l9 -16h22l-14 21q-8 11 -12 17t-12 10q14 1 22 9.5
t8 19.5q0 9 -6 17q-5 5 -12 8q-7 4 -27 4h-36v-106zM113 607v33h19q17 0 18 -1q9 -5 9 -15q0 -8 -5.5 -12.5t-20.5 -4.5h-20z" />
    <glyph glyph-name="FL00B0h" unicode="&#xaf;" horiz-adv-x="565" 
d="M516 649v-118l-10 -11h-447l-9 11v118l9 11h447z" />
    <glyph glyph-name="FL00B2h" unicode="&#xb0;" horiz-adv-x="260" 
d="M157 771v40l-6 4h-44l-5 -4v-40l4 -7h45zM211 850v-115l-14 -15h-139l-8 14v116l13 10h134z" />
    <glyph glyph-name="FL00B1h" unicode="&#xb1;" horiz-adv-x="499" 
d="M179 585l11 10h119l11 -10v-120h120l9 -11v-118l-9 -11h-120v-120l-11 -10h-119l-11 10v120h-120l-9 11v118l9 11h120v120zM59 141h381l9 -11v-119l-9 -11h-381l-9 11v119z" />
    <glyph glyph-name="FL00B3h" unicode="&#xb2;" horiz-adv-x="492" 
d="M50 599v98l13 10h303q7 0 14.5 -5.5t13.5 -13t9.5 -17t3.5 -16.5v-68l-141 -111h127l14 -10v-99l-9 -14h-309q-8 0 -15 5.5t-12 13t-8.5 16.5t-3.5 17v67l134 112h-121z" />
    <glyph glyph-name="FL00B5h" unicode="&#xb3;" horiz-adv-x="763" 
d="M714 384l-31 7v-97l19 -2zM704 252l-18 8l-14 -13l14 -14zM654 259v125l-18 7l-4 -89l-65 82v-126l20 2v62q40 -63 67 -63zM548 260v93q-11 41 -31 41q-15 0 -16 -4q-39 -62 -48 -126h25q15 30 28 30q16 0 28 -30zM443 391l-22 -7l-12 -126l27 8zM387 254v125l-18 5
l-5 -85l-66 80v-127l20 4v60q44 -62 69 -62zM285 344q-9 40 -46 40h-12q-43 -28 -43 -112q9 -20 39 -20q4 0 8.5 0.5t11.5 1.5q31 0 42 90zM175 389q-83 -15 -83 -73v-8q0 -7 2 -9q11 -56 44 -56q6 0 10 1.5t13 3.5l-2 22q-4 -4 -21 -4q-24 0 -24 26q0 29 17 52q17 17 30 17
q6 0 6 -1l1.5 -0.5t4.5 -2.5zM80 384l-20 -3l-10 -129l23 10zM528 322h-36l21 42zM263 325q0 -11 -1.5 -19t-7.5 -18q-20 -12 -29 -12q-18 0 -18 31v9q13 39 33 39q10 0 21 -15q1 -5 1.5 -9t0.5 -6z" />
    <glyph glyph-name="FL00B4h" unicode="&#xb4;" horiz-adv-x="276" 
d="M50 735l64 115l23 10h139l9 -14l-75 -116l-14 -10h-137z" />
    <glyph glyph-name="FL00BCh" unicode="&#xb5;" 
d="M123 0q-14 0 -27 9.5t-23 23.5t-16.5 30t-6.5 30v547l13 9h134l14 -9v-499h400v499l14 9h133l14 -9v-547q0 -14 -6.5 -30t-16.5 -30t-23.5 -23.5t-26.5 -9.5h-576zM559 395l10 -11v-119l-10 -11h-297l-10 11v119l10 11h297z" />
    <glyph glyph-name="FL0C3Dh" unicode="&#xb6;" horiz-adv-x="765" 
d="M715 384l-31 7v-97l19 -2zM705 252l-18 8l-14 -13l14 -14zM655 259v125l-19 7l-4 -89l-64 82v-126l20 2v62q40 -63 67 -63zM549 260v93q-12 41 -31 41q-15 0 -16 -4q-39 -62 -48 -126h25q15 30 28 30q15 0 27 -30zM443 391l-22 -7l-11 -126l26 8zM388 254v125l-18 5
l-5 -85l-66 80v-127l20 4v60q42 -62 69 -62zM286 344q-9 40 -47 40h-12q-42 -29 -42 -112q9 -20 38 -20q4 0 8.5 0.5t11.5 1.5q32 0 43 90zM176 389q-83 -15 -83 -73v-8q0 -7 2 -9q11 -56 43 -56q6 0 10 1.5t14 3.5l-2 22q-4 -4 -22 -4q-23 0 -23 26q0 30 16 52q17 17 31 17
q6 0 6 -1l1.5 -0.5t4.5 -2.5zM81 384l-20 -3l-11 -129l24 10zM528 322h-35l21 42zM264 325q0 -11 -1.5 -19t-7.5 -18q-21 -12 -30 -12q-17 0 -17 31v9q13 39 32 39q11 0 22 -15q1 -5 1.5 -9t0.5 -6z" />
    <glyph glyph-name="FL00B7h" unicode="&#xb7;" horiz-adv-x="260" 
d="M50 269v116l13 10h134l14 -10v-117l-9 -14h-139z" />
    <glyph glyph-name="FL00B8h" unicode="&#xb8;" horiz-adv-x="251" 
d="M67 0h135v-165l-11 -10h-191l-10 11v110l10 10h67v44z" />
    <glyph glyph-name="FL00BEh" unicode="&#xb9;" horiz-adv-x="278" 
d="M229 693v-327l-9 -14h-112l-14 15v217h-35l-9 11v101l9 11h161z" />
    <glyph glyph-name="FL00BAh" unicode="&#xba;" horiz-adv-x="492" 
d="M89 353q-8 0 -15 5.5t-12 13t-8.5 16.5t-3.5 17v250q0 7 3.5 16.5t8.5 17t12 13t15 5.5h313q7 0 14.5 -5.5t13.5 -13t9.5 -17t3.5 -16.5v-250q0 -8 -3.5 -17t-9.5 -17t-13.5 -13t-14.5 -5h-313zM308 584h-125v-108h125v108z" />
    <glyph glyph-name="FL00BBh" unicode="&#xbb;" horiz-adv-x="866" 
d="M478 327l-245 313l-14 9h-170l-14 -14l241 -308l-241 -308l9 -19h175l14 15zM832 327l-246 313l-14 9h-170l-14 -14l242 -308l-242 -308l9 -19h175l14 15z" />
    <glyph glyph-name="FL0192h" unicode="&#xbc;" horiz-adv-x="1042" 
d="M1007 344q0 19 -85 55q47 6 47 40v8l-130 39q25 3 25 41l-14 15h-152l7 43l-47 5l-128 -29l-4 8l4 21l-25 24l-116 -65l-58 41q-18 -8 -35.5 -27t-42.5 -57l-71 28h-4q-29 0 -29 -101l-77 8l-4 -42l37 -52l-70 -13l6 -35l72 -37l-41 -35q0 -28 20 -28l104 -22l-20 -25
v-25l167 -16l-7 -35l19 -14l161 28v-41l20 -8l122 70l40 -43l33 8l62 76l7 -3q19 -11 31.5 -17t27.5 -6q18 0 25 16l7 85l64 -16q19 9 19 31v5l-0.5 2t-1.5 7l-36 56h56l13 30zM986 334l-82 -8q53 -68 53 -85l-0.5 -1t-1.5 -7l-85 14l-6 -100l-83 30l-64 -87l-59 44
l-128 -72l6 28l-20 28l-161 -33l19 49l-178 8l52 39l-156 40l72 35l-110 64l83 6l-45 64l-5 30l83 -8l12 101q40 -31 63 -31q9 0 16 4l70 83l50 -42l117 63l13 -5l5 -43l168 27l-13 -49h173l-51 -43l149 -36l7 -15h-7l-66 -20l104 -59zM860 384l-30 7v-97l18 -2zM850 252
l-17 8l-14 -13l14 -14zM801 259v125l-19 7l-4 -89l-64 82v-126l20 2v62q39 -63 67 -63zM695 260v93q-12 41 -32 41q-15 0 -16 -4q-19 -31 -30.5 -62.5t-16.5 -63.5h25q15 30 27 30q16 0 28 -30zM589 391l-22 -7l-12 -126l27 8zM534 254v125l-18 5l-5 -85l-66 80v-127l19 4
v60q44 -62 70 -62zM432 344q-9 40 -47 40h-12q-42 -29 -42 -112q9 -20 38 -20q4 0 8.5 0.5t11.5 1.5q32 0 43 90zM322 389q-83 -15 -83 -73v-8q0 -7 2 -9q11 -56 43 -56q6 0 10 1.5t14 3.5l-2 22q-4 -4 -22 -4q-24 0 -24 26q0 29 17 52q17 17 31 17q6 0 6 -1l1.5 -0.5
t4.5 -2.5zM227 384l-20 -3l-11 -129l24 10zM674 322h-35l20 42zM410 325q0 -11 -1.5 -19t-7.5 -18q-21 -12 -30 -12q-18 0 -18 31v9q13 39 33 39q11 0 22 -15q1 -5 1.5 -9t0.5 -6z" />
    <glyph glyph-name="FL00BDh" unicode="&#xbd;" horiz-adv-x="907" 
d="M35 19l486 621l14 9h170l14 -14l-486 -620l-14 -15h-175zM500 196v98l14 10h303q7 0 14.5 -5.5t13 -13t9 -17t3.5 -16.5v-68l-140 -111h126l14 -10v-99l-9 -14h-308q-8 0 -15 5.5t-12.5 13t-9 16.5t-3.5 17v67l135 112h-121zM250 685v-327l-8 -13h-112l-14 14v217h-35
l-10 11v101l10 11h161z" />
    <glyph glyph-name="FL0D53h" unicode="&#xbe;" horiz-adv-x="1001" 
d="M966 334l-82 -8q54 -68 54 -85l-0.5 -1t-1.5 -7l-86 14l-6 -100l-83 30l-64 -87l-58 44l-129 -72l6 28l-20 28l-160 -33l18 49l-178 8l52 39l-156 40l73 35l-110 64l82 6l-45 64l-5 30l83 -8l12 101q40 -31 63 -31q10 0 17 4l69 83l50 -42l117 63l13 -5l5 -43l168 27
l-13 -49h174l-52 -43l149 -36l8 -15h-8l-66 -20l104 -59zM841 384l-31 7v-97l19 -2zM831 252l-18 8l-14 -13l14 -14zM781 259v125l-19 7l-4 -89l-64 82v-126l20 2v62q40 -63 67 -63zM675 260v93q-12 41 -31 41q-15 0 -16 -4q-39 -62 -48 -126h25q15 30 28 30q15 0 27 -30z
M569 391l-22 -7l-11 -126l26 8zM514 254v125l-18 5l-5 -85l-66 80v-127l20 4v60q42 -62 69 -62zM412 344q-9 40 -47 40h-12q-42 -29 -42 -112q9 -20 38 -20q4 0 8.5 0.5t11.5 1.5q32 0 43 90zM302 389q-83 -15 -83 -73v-8q0 -7 2 -9q11 -56 43 -56q6 0 10 1.5t14 3.5l-2 22
q-4 -4 -22 -4q-23 0 -23 26q0 30 16 52q17 17 31 17q6 0 6 -1l1.5 -0.5t4.5 -2.5zM207 384l-20 -3l-11 -129l24 10zM654 322h-35l21 42zM390 325q0 -11 -1.5 -19t-7.5 -18q-21 -12 -30 -12q-17 0 -17 31v9q13 39 32 39q11 0 22 -15q1 -5 1.5 -9t0.5 -6z" />
    <glyph glyph-name="FL00BFh" unicode="&#xbf;" horiz-adv-x="720" 
d="M619 428v-81q0 -13 -6.5 -29t-17 -30.5t-23.5 -24t-26 -9.5h-335v-113h449l10 -14v-113l-9 -14h-538q-14 0 -27 9.5t-23 23.5t-16.5 30t-6.5 30v209q0 13 6.5 29.5t16.5 30.5t23 23.5t27 9.5h334v34l9 14h139zM619 635v-116l-14 -10h-134l-14 10v117l9 13h139z" />
    <glyph glyph-name="FL00C0h" unicode="&#xc0;" horiz-adv-x="869" 
d="M831 37l4 -18q0 -5 -2.5 -12t-6.5 -7h-494l-11 10v118l11 13h250q6 0 6 8v12l-152 291l-5 -1l-229 -451h-158q-6 0 -7.5 4t-1.5 9v14q0 5 1 9t5 11l320 602h145zM467 850l65 -115l-10 -15h-137l-14 10l-75 116l9 14h140z" />
    <glyph glyph-name="FL00C1h" unicode="&#xc1;" horiz-adv-x="869" 
d="M402 850l-64 -115l10 -15h136l14 10l75 116l-9 14h-139zM835 19l-4 18l-325 612h-145l-320 -602q-4 -7 -5 -11t-1 -9v-14q0 -5 1.5 -9t7.5 -4h158l229 451l5 1l152 -291v-12q0 -8 -6 -8h-250l-11 -13v-118l11 -10h494q4 0 6.5 7t2.5 12z" />
    <glyph glyph-name="FL00C2h" unicode="&#xc2;" horiz-adv-x="869" 
d="M395 730l43 57l38 -58l20 -9h138l13 15l-77 115l-14 10h-243l-14 -10l-75 -116l9 -14h139zM835 19l-4 18l-325 612h-145l-320 -602q-4 -7 -5 -11t-1 -9v-14q0 -5 1.5 -9t7.5 -4h158l229 451l5 1l152 -291v-12q0 -8 -6 -8h-250l-11 -13v-118l11 -10h494q4 0 6.5 7t2.5 12z
" />
    <glyph glyph-name="FL00C3h" unicode="&#xc3;" horiz-adv-x="869" 
d="M831 37l4 -18q0 -5 -2.5 -12t-6.5 -7h-494l-11 10v118l11 13h250q6 0 6 8v12l-152 291l-5 -1l-229 -451h-158q-6 0 -7.5 4t-1.5 9v14q0 5 1 9t5 11l320 602h145zM456 850l43 -57l39 58l19 9h138l14 -15l-77 -115l-14 -10h-185l-23 10l-43 57l-38 -58l-20 -9h-138l-14 15
l78 115l14 10h185z" />
    <glyph glyph-name="FL00C4h" unicode="&#xc4;" horiz-adv-x="869" 
d="M647 735v115l-13 10h-134l-14 -10v-116l9 -14h139zM385 735v115l-14 10h-133l-14 -10v-116l9 -14h138zM835 19l-4 18l-325 612h-145l-320 -602q-4 -7 -5 -11t-1 -9v-14q0 -5 1.5 -9t7.5 -4h158l229 451l5 1l152 -291v-12q0 -8 -6 -8h-250l-11 -13v-118l11 -10h494
q4 0 6.5 7t2.5 12z" />
    <glyph glyph-name="FL00C5h" unicode="&#xc5;" horiz-adv-x="869" 
d="M463 771v40l-6 4h-44l-5 -4v-40l4 -7h45zM831 37l4 -18q0 -5 -2.5 -12t-6.5 -7h-494l-11 10v118l11 13h250q6 0 6 8v12l-152 291l-5 -1l-229 -451h-158q-6 0 -7.5 4t-1.5 9v14q0 5 1 9t5 11l320 602h145zM517 850v-115l-14 -15h-139l-9 14v116l14 10h134z" />
    <glyph glyph-name="FL00C6h" unicode="&#xc6;" horiz-adv-x="1340" 
d="M35 19l4 18l324 612h145l148 -279v270l14 9h611l9 -13v-113l-10 -14h-453l-9 -15v-339l9 -14h453l10 -14v-113l-9 -14h-614l-228 451l-5 1l-153 -291v-12q0 -8 6 -8h251l10 -13v-118l-10 -10h-494q-4 0 -6.5 7t-2.5 12zM1228 384v-119l-10 -11h-349l-10 11v119l10 11h349
z" />
    <glyph glyph-name="FL00C7h" unicode="&#xc7;" horiz-adv-x="735" 
d="M211 509v-368h313v41l14 15h138l9 -14v-90q0 -14 -6.5 -30t-17 -30t-23.5 -23.5t-26 -9.5h-155v-165l-10 -10h-192l-9 11v110l9 10h68v44h-200q-14 0 -27 9.5t-23 23.5t-16.5 30t-6.5 30v463q0 13 6.5 29.5t16.5 30.5t23 23.5t27 9.5h489q13 0 26 -9.5t23.5 -23.5
t17 -30.5t6.5 -29.5v-90l-9 -14h-138l-14 15v42h-313z" />
    <glyph glyph-name="FL00C8h" unicode="&#xc8;" horiz-adv-x="733" 
d="M400 850l64 -115l-10 -15h-136l-14 10l-75 116l9 14h139zM50 640l13 9h611l9 -13v-113l-10 -14h-453l-9 -15v-339l9 -14h453l10 -14v-113l-9 -14h-611l-13 15v625zM621 384v-119l-10 -11h-349l-10 11v119l10 11h349z" />
    <glyph glyph-name="FL00C9h" unicode="&#xc9;" horiz-adv-x="733" 
d="M268 735l65 115l22 10h140l9 -14l-75 -116l-14 -10h-137zM50 640l13 9h611l9 -13v-113l-10 -14h-453l-9 -15v-339l9 -14h453l10 -14v-113l-9 -14h-611l-13 15v625zM621 384v-119l-10 -11h-349l-10 11v119l10 11h349z" />
    <glyph glyph-name="FL00CAh" unicode="&#xca;" horiz-adv-x="733" 
d="M407 730l-43 57l-38 -58l-20 -9h-138l-14 15l78 115l14 10h243l14 -10l75 -116l-9 -14h-139zM50 640l13 9h611l9 -13v-113l-10 -14h-453l-9 -15v-339l9 -14h453l10 -14v-113l-9 -14h-611l-13 15v625zM621 384v-119l-10 -11h-349l-10 11v119l10 11h349z" />
    <glyph glyph-name="FL00CBh" unicode="&#xcb;" horiz-adv-x="733" 
d="M154 735v115l14 10h134l14 -10v-116l-9 -14h-139zM417 735v115l14 10h133l14 -10v-116l-9 -14h-138zM50 640l13 9h611l9 -13v-113l-10 -14h-453l-9 -15v-339l9 -14h453l10 -14v-113l-9 -14h-611l-13 15v625zM621 384v-119l-10 -11h-349l-10 11v119l10 11h349z" />
    <glyph glyph-name="FL00CCh" unicode="&#xcc;" horiz-adv-x="561" 
d="M50 14v622l8 13h444l10 -10v-119l-10 -11h-291v-499l-14 -10h-139z" />
    <glyph glyph-name="FL00CDh" unicode="&#xcd;" horiz-adv-x="561" 
d="M512 14v622l-9 13h-444l-9 -10v-119l9 -11h291v-499l14 -10h139z" />
    <glyph glyph-name="FL00CEh" unicode="&#xce;" horiz-adv-x="561" 
d="M50 636v-622l8 -14h444l10 11v119l-10 11h-291v499l-14 9h-139z" />
    <glyph glyph-name="FL00CFh" unicode="&#xcf;" horiz-adv-x="561" 
d="M512 636v-622l-9 -14h-444l-9 11v119l9 11h291v499l14 9h139z" />
    <glyph glyph-name="FL00D0h" unicode="&#xd0;" horiz-adv-x="937" 
d="M164 15v239h-105l-9 11v119l9 11h105v245l14 9h606q13 0 31 -13t34 -31.5t27 -40t11 -37.5v-404q0 -17 -11 -38.5t-27 -40t-34 -31.5t-31 -13h-606zM621 384v-119l-10 -11h-285v-113h359q10 0 17.5 5t12.5 11.5t8 14t3 13.5v284q0 13 -13.5 26.5t-26.5 13.5h-360v-114
h285z" />
    <glyph glyph-name="FL00D1h" unicode="&#xd1;" horiz-adv-x="805" 
d="M426 850l42 -57l39 58l20 9h137l14 -15l-77 -115l-14 -10h-185l-23 10l-42 57l-39 -58l-20 -9h-137l-14 15l77 115l14 10h185zM608 0l-18 15l-379 394v-395l-9 -14h-139l-13 15v625l13 9h134l17 -7l380 -399v397l14 9h134l13 -9v-626l-9 -14h-138z" />
    <glyph glyph-name="FL00D2h" unicode="&#xd2;" 
d="M123 0q-14 0 -27 9.5t-23 23.5t-16.5 30t-6.5 30v463q0 13 6.5 29.5t16.5 30.5t23 23.5t27 9.5h576q13 0 26.5 -9.5t23.5 -23.5t16.5 -30.5t6.5 -29.5v-463q0 -14 -6.5 -30t-16.5 -30t-23.5 -23.5t-26.5 -9.5h-576zM611 509h-400v-368h400v368zM437 850l64 -115l-10 -15
h-137l-13 10l-76 116l9 14h140z" />
    <glyph glyph-name="FL00D3h" unicode="&#xd3;" 
d="M123 0q-14 0 -27 9.5t-23 23.5t-16.5 30t-6.5 30v463q0 13 6.5 29.5t16.5 30.5t23 23.5t27 9.5h576q13 0 26.5 -9.5t23.5 -23.5t16.5 -30.5t6.5 -29.5v-463q0 -14 -6.5 -30t-16.5 -30t-23.5 -23.5t-26.5 -9.5h-576zM611 509h-400v-368h400v368zM321 735l64 115l23 10h139
l9 -14l-75 -116l-14 -10h-136z" />
    <glyph glyph-name="FL00D4h" unicode="&#xd4;" 
d="M123 0q-14 0 -27 9.5t-23 23.5t-16.5 30t-6.5 30v463q0 13 6.5 29.5t16.5 30.5t23 23.5t27 9.5h576q13 0 26.5 -9.5t23.5 -23.5t16.5 -30.5t6.5 -29.5v-463q0 -14 -6.5 -30t-16.5 -30t-23.5 -23.5t-26.5 -9.5h-576zM611 509h-400v-368h400v368zM451 730l-42 57l-39 -58
l-20 -9h-137l-14 15l77 115l14 10h244l13 -10l76 -116l-9 -14h-140z" />
    <glyph glyph-name="FL00D5h" unicode="&#xd5;" 
d="M434 850l42 -57l39 58l20 9h137l14 -15l-77 -115l-14 -10h-185l-23 10l-42 57l-39 -58l-20 -9h-137l-14 15l77 115l14 10h185zM123 0q-14 0 -27 9.5t-23 23.5t-16.5 30t-6.5 30v463q0 13 6.5 29.5t16.5 30.5t23 23.5t27 9.5h576q13 0 26.5 -9.5t23.5 -23.5t16.5 -30.5
t6.5 -29.5v-463q0 -14 -6.5 -30t-16.5 -30t-23.5 -23.5t-26.5 -9.5h-576zM611 509h-400v-368h400v368z" />
    <glyph glyph-name="FL00D6h" unicode="&#xd6;" 
d="M123 0q-14 0 -27 9.5t-23 23.5t-16.5 30t-6.5 30v463q0 13 6.5 29.5t16.5 30.5t23 23.5t27 9.5h576q13 0 26.5 -9.5t23.5 -23.5t16.5 -30.5t6.5 -29.5v-463q0 -14 -6.5 -30t-16.5 -30t-23.5 -23.5t-26.5 -9.5h-576zM611 509h-400v-368h400v368zM199 735v115l14 10h134
l13 -10v-116l-9 -14h-138zM461 735v115l14 10h134l14 -10v-116l-9 -14h-139z" />
    <glyph glyph-name="FL00D7h" unicode="&#xd7;" horiz-adv-x="467" 
d="M319 509l14 -1l84 -84l1 -14l-85 -85l85 -85l-1 -14l-84 -84l-14 -1l-85 85l-85 -85l-14 1l-84 84l-1 14l85 85l-85 85l1 14l84 84l14 1l85 -85z" />
    <glyph glyph-name="FL00D8h" unicode="&#xd8;" 
d="M123 0q-14 0 -27 9.5t-23 23.5t-16.5 30t-6.5 30v463q0 13 6.5 29.5t16.5 30.5t23 23.5t27 9.5h576q10 0 23 -8t24 -21t18.5 -30t7.5 -34v-463q0 -14 -6.5 -30t-16.5 -30t-23.5 -23.5t-26.5 -9.5h-576zM368 141h243v314zM453 509h-242v-315z" />
    <glyph glyph-name="FL00D9h" unicode="&#xd9;" 
d="M437 850l64 -115l-10 -15h-137l-13 10l-76 116l9 14h140zM123 0q-14 0 -27 9.5t-23 23.5t-16.5 30t-6.5 30v547l13 9h134l14 -9v-499h400v499l14 9h133l14 -9v-547q0 -14 -6.5 -30t-16.5 -30t-23.5 -23.5t-26.5 -9.5h-576z" />
    <glyph glyph-name="FL00DAh" unicode="&#xda;" 
d="M123 0q-14 0 -27 9.5t-23 23.5t-16.5 30t-6.5 30v547l13 9h134l14 -9v-499h400v499l14 9h133l14 -9v-547q0 -14 -6.5 -30t-16.5 -30t-23.5 -23.5t-26.5 -9.5h-576zM321 735l64 115l23 10h139l9 -14l-75 -116l-14 -10h-136z" />
    <glyph glyph-name="FL00DBh" unicode="&#xdb;" 
d="M123 0q-14 0 -27 9.5t-23 23.5t-16.5 30t-6.5 30v547l13 9h134l14 -9v-499h400v499l14 9h133l14 -9v-547q0 -14 -6.5 -30t-16.5 -30t-23.5 -23.5t-26.5 -9.5h-576zM451 730l-42 57l-39 -58l-20 -9h-137l-14 15l77 115l14 10h244l13 -10l76 -116l-9 -14h-140z" />
    <glyph glyph-name="FL00DDh" unicode="&#xdc;" 
d="M199 735v115l14 10h134l13 -10v-116l-9 -14h-138zM461 735v115l14 10h134l14 -10v-116l-9 -14h-139zM123 0q-14 0 -27 9.5t-23 23.5t-16.5 30t-6.5 30v547l13 9h134l14 -9v-499h400v499l14 9h133l14 -9v-547q0 -14 -6.5 -30t-16.5 -30t-23.5 -23.5t-26.5 -9.5h-576z" />
    <glyph glyph-name="FL00E0h" unicode="&#xdd;" horiz-adv-x="741" 
d="M272 735l65 115l22 10h140l9 -14l-75 -116l-14 -10h-137zM488 381v-111l-14 -15h-350q-14 0 -27 9.5t-23 24t-16.5 30.5t-6.5 29v292l13 9h134l14 -9v-244h262zM618 0h-560l-8 14v113l9 14h471v499l14 9h133l14 -9v-547q0 -14 -6.5 -30t-17 -30t-23.5 -23.5t-26 -9.5z
" />
    <glyph glyph-name="FL00DEh" unicode="&#xde;" horiz-adv-x="761" 
d="M550 259v136h-339v-385l-14 -10h-134l-13 10v630l13 9h134l14 -9v-104h428q13 0 26 -9.5t23.5 -23.5t17 -30.5t6.5 -29.5v-231q0 -14 -6.5 -30t-17 -30t-23.5 -23.5t-26 -9.5h-377l-10 11v118l10 11h288z" />
    <glyph glyph-name="FL00DFh" unicode="&#xdf;" horiz-adv-x="821" 
d="M257 15v116l14 10h339v113h-343l-10 11v119l10 11h343v114h-399v-585l-9 -14h-139l-13 15v631q0 14 5.5 30.5t15.5 30.5t23 23t28 9h576q13 0 26.5 -9.5t23.5 -23.5t16.5 -30.5t6.5 -29.5v-168q0 -3 -6 -12t-13.5 -19t-16 -19.5t-12.5 -12.5q4 -4 12 -13t16 -18.5
t14 -17.5t6 -11v-172q0 -14 -6.5 -30t-16.5 -30t-23.5 -23.5t-26.5 -9.5h-427z" />
    <glyph glyph-name="FL00E1h" unicode="&#xe0;" horiz-adv-x="869" 
d="M467 850l65 -115l-10 -15h-137l-14 10l-75 116l9 14h140zM35 19l4 18l324 612h145l321 -602q4 -7 5 -11t1 -9v-14q0 -5 -1.5 -9t-7.5 -4h-159l-228 451l-5 1l-153 -291v-12q0 -8 6 -8h251l10 -13v-118l-10 -10h-494q-4 0 -6.5 7t-2.5 12z" />
    <glyph glyph-name="FL00E8h" unicode="&#xe1;" horiz-adv-x="869" 
d="M39 37l-4 -18q0 -5 2.5 -12t6.5 -7h494l10 10v118l-10 13h-251q-6 0 -6 8v12l153 291l5 -1l228 -451h159q6 0 7.5 4t1.5 9v14q0 5 -1 9t-5 11l-321 602h-145zM402 850l-64 -115l10 -15h136l14 10l75 116l-9 14h-139z" />
    <glyph glyph-name="FL00E2h" unicode="&#xe2;" horiz-adv-x="869" 
d="M474 730l-42 57l-39 -58l-20 -9h-137l-14 15l77 115l14 10h243l14 -10l75 -116l-8 -14h-140zM35 19l4 18l324 612h145l321 -602q4 -7 5 -11t1 -9v-14q0 -5 -1.5 -9t-7.5 -4h-159l-228 451l-5 1l-153 -291v-12q0 -8 6 -8h251l10 -13v-118l-10 -10h-494q-4 0 -6.5 7
t-2.5 12z" />
    <glyph glyph-name="FL00E3h" unicode="&#xe3;" horiz-adv-x="869" 
d="M456 850l43 -57l39 58l19 9h138l14 -15l-77 -115l-14 -10h-185l-23 10l-43 57l-38 -58l-20 -9h-138l-14 15l78 115l14 10h185zM35 19l4 18l324 612h145l321 -602q4 -7 5 -11t1 -9v-14q0 -5 -1.5 -9t-7.5 -4h-159l-228 451l-5 1l-153 -291v-12q0 -8 6 -8h251l10 -13v-118
l-10 -10h-494q-4 0 -6.5 7t-2.5 12z" />
    <glyph glyph-name="FL00E4h" unicode="&#xe4;" horiz-adv-x="869" 
d="M222 735v115l14 10h133l14 -10v-116l-9 -14h-138zM484 735v115l14 10h134l13 -10v-116l-8 -14h-139zM35 19l4 18l324 612h145l321 -602q4 -7 5 -11t1 -9v-14q0 -5 -1.5 -9t-7.5 -4h-159l-228 451l-5 1l-153 -291v-12q0 -8 6 -8h251l10 -13v-118l-10 -10h-494q-4 0 -6.5 7
t-2.5 12z" />
    <glyph glyph-name="FL00E5h" unicode="&#xe5;" horiz-adv-x="869" 
d="M406 771v40l6 4h44l5 -4v-40l-4 -7h-45zM39 37l-4 -18q0 -5 2.5 -12t6.5 -7h494l10 10v118l-10 13h-251q-6 0 -6 8v12l153 291l5 -1l228 -451h159q6 0 7.5 4t1.5 9v14q0 5 -1 9t-5 11l-321 602h-145zM352 850v-115l14 -15h139l9 14v116l-14 10h-134z" />
    <glyph glyph-name="FL00E6h" unicode="&#xe6;" horiz-adv-x="1340" 
d="M35 19l4 18l324 612h145l148 -279v270l14 9h611l9 -13v-113l-10 -14h-453l-9 -15v-339l9 -14h453l10 -14v-113l-9 -14h-614l-228 451l-5 1l-153 -291v-12q0 -8 6 -8h251l10 -13v-118l-10 -10h-494q-4 0 -6.5 7t-2.5 12zM1228 384v-119l-10 -11h-349l-10 11v119l10 11h349
z" />
    <glyph glyph-name="FL00E7h" unicode="&#xe7;" horiz-adv-x="735" 
d="M211 509v-368h313v41l14 15h138l9 -14v-90q0 -14 -6.5 -30t-17 -30t-23.5 -23.5t-26 -9.5h-155v-165l-10 -10h-192l-9 11v110l9 10h68v44h-200q-14 0 -27 9.5t-23 23.5t-16.5 30t-6.5 30v463q0 13 6.5 29.5t16.5 30.5t23 23.5t27 9.5h489q13 0 26 -9.5t23.5 -23.5
t17 -30.5t6.5 -29.5v-90l-9 -14h-138l-14 15v42h-313z" />
    <glyph glyph-name="FL00E9h" unicode="&#xe8;" horiz-adv-x="733" 
d="M400 850l64 -115l-10 -15h-136l-14 10l-75 116l9 14h139zM50 640l13 9h611l9 -13v-113l-10 -14h-453l-9 -15v-339l9 -14h453l10 -14v-113l-9 -14h-611l-13 15v625zM621 384v-119l-10 -11h-349l-10 11v119l10 11h349z" />
    <glyph glyph-name="FL0DBDh" unicode="&#xe9;" horiz-adv-x="733" 
d="M268 735l65 115l22 10h140l9 -14l-75 -116l-14 -10h-137zM50 640l13 9h611l9 -13v-113l-10 -14h-453l-9 -15v-339l9 -14h453l10 -14v-113l-9 -14h-611l-13 15v625zM621 384v-119l-10 -11h-349l-10 11v119l10 11h349z" />
    <glyph glyph-name="FL00EAh" unicode="&#xea;" horiz-adv-x="733" 
d="M407 730l-43 57l-38 -58l-20 -9h-138l-14 15l78 115l14 10h243l14 -10l75 -116l-9 -14h-139zM50 640l13 9h611l9 -13v-113l-10 -14h-453l-9 -15v-339l9 -14h453l10 -14v-113l-9 -14h-611l-13 15v625zM621 384v-119l-10 -11h-349l-10 11v119l10 11h349z" />
    <glyph glyph-name="FL00EBh" unicode="&#xeb;" horiz-adv-x="733" 
d="M154 735v115l14 10h134l14 -10v-116l-9 -14h-139zM417 735v115l14 10h133l14 -10v-116l-9 -14h-138zM50 640l13 9h611l9 -13v-113l-10 -14h-453l-9 -15v-339l9 -14h453l10 -14v-113l-9 -14h-611l-13 15v625zM621 384v-119l-10 -11h-349l-10 11v119l10 11h349z" />
    <glyph glyph-name="FL00ECh" unicode="&#xec;" horiz-adv-x="260" 
d="M183 850l65 -115l-10 -15h-137l-14 10l-75 116l9 14h139zM50 15v625l13 9h134l14 -9v-626l-9 -14h-139z" />
    <glyph glyph-name="FL00EDh" unicode="&#xed;" horiz-adv-x="260" 
d="M12 735l64 115l23 10h140l9 -14l-76 -116l-14 -10h-136zM50 15v625l13 9h134l14 -9v-626l-9 -14h-139z" />
    <glyph glyph-name="FL00EEh" unicode="&#xee;" horiz-adv-x="260" 
d="M171 730l-42 57l-39 -58l-20 -9h-137l-14 15l77 115l14 10h243l14 -10l76 -116l-9 -14h-140zM50 15v625l13 9h134l14 -9v-626l-9 -14h-139z" />
    <glyph glyph-name="FL00EFh" unicode="&#xef;" horiz-adv-x="260" 
d="M-81 735v115l14 10h133l14 -10v-116l-9 -14h-138zM181 735v115l14 10h134l14 -10v-116l-9 -14h-139zM50 15v625l13 9h134l14 -9v-626l-9 -14h-139z" />
    <glyph glyph-name="FL00F0h" unicode="&#xf0;" horiz-adv-x="818" 
d="M328 451v58h-117v-42l-14 -15h-139l-8 14v90q0 13 6.5 29.5t16.5 30.5t23 23.5t27 9.5h205v84l14 9h133l14 -9v-84h206q13 0 26.5 -9.5t23.5 -23.5t16.5 -30.5t6.5 -29.5v-463q0 -14 -6.5 -30t-16.5 -30t-23.5 -23.5t-26.5 -9.5h-572q-14 0 -27 9.5t-23 23.5t-16.5 30
t-6.5 30v208q0 13 7 29.5t17.5 30.5t23.5 24t24 10h485v114h-118v-59l-9 -13h-138zM607 254h-396v-113h396v113z" />
    <glyph glyph-name="FL00F1h" unicode="&#xf1;" horiz-adv-x="805" 
d="M426 850l42 -57l39 58l20 9h137l14 -15l-77 -115l-14 -10h-185l-23 10l-42 57l-39 -58l-20 -9h-137l-14 15l77 115l14 10h185zM608 0l-18 15l-379 394v-395l-9 -14h-139l-13 15v625l13 9h134l17 -7l380 -399v397l14 9h134l13 -9v-626l-9 -14h-138z" />
    <glyph glyph-name="FL00F2h" unicode="&#xf2;" 
d="M123 0q-14 0 -27 9.5t-23 23.5t-16.5 30t-6.5 30v463q0 13 6.5 29.5t16.5 30.5t23 23.5t27 9.5h576q13 0 26.5 -9.5t23.5 -23.5t16.5 -30.5t6.5 -29.5v-463q0 -14 -6.5 -30t-16.5 -30t-23.5 -23.5t-26.5 -9.5h-576zM611 509h-400v-368h400v368zM437 850l64 -115l-10 -15
h-137l-13 10l-76 116l9 14h140z" />
    <glyph glyph-name="FL00F3h" unicode="&#xf3;" 
d="M123 0q-14 0 -27 9.5t-23 23.5t-16.5 30t-6.5 30v463q0 13 6.5 29.5t16.5 30.5t23 23.5t27 9.5h576q13 0 26.5 -9.5t23.5 -23.5t16.5 -30.5t6.5 -29.5v-463q0 -14 -6.5 -30t-16.5 -30t-23.5 -23.5t-26.5 -9.5h-576zM611 509h-400v-368h400v368zM321 735l64 115l23 10h139
l9 -14l-75 -116l-14 -10h-136z" />
    <glyph glyph-name="FL00F4h" unicode="&#xf4;" 
d="M123 0q-14 0 -27 9.5t-23 23.5t-16.5 30t-6.5 30v463q0 13 6.5 29.5t16.5 30.5t23 23.5t27 9.5h576q13 0 26.5 -9.5t23.5 -23.5t16.5 -30.5t6.5 -29.5v-463q0 -14 -6.5 -30t-16.5 -30t-23.5 -23.5t-26.5 -9.5h-576zM611 509h-400v-368h400v368zM451 730l-42 57l-39 -58
l-20 -9h-137l-14 15l77 115l14 10h244l13 -10l76 -116l-9 -14h-140z" />
    <glyph glyph-name="FL00F5h" unicode="&#xf5;" 
d="M434 850l42 -57l39 58l20 9h137l14 -15l-77 -115l-14 -10h-185l-23 10l-42 57l-39 -58l-20 -9h-137l-14 15l77 115l14 10h185zM123 0q-14 0 -27 9.5t-23 23.5t-16.5 30t-6.5 30v463q0 13 6.5 29.5t16.5 30.5t23 23.5t27 9.5h576q13 0 26.5 -9.5t23.5 -23.5t16.5 -30.5
t6.5 -29.5v-463q0 -14 -6.5 -30t-16.5 -30t-23.5 -23.5t-26.5 -9.5h-576zM611 509h-400v-368h400v368z" />
    <glyph glyph-name="FL00F6h" unicode="&#xf6;" 
d="M123 0q-14 0 -27 9.5t-23 23.5t-16.5 30t-6.5 30v463q0 13 6.5 29.5t16.5 30.5t23 23.5t27 9.5h576q13 0 26.5 -9.5t23.5 -23.5t16.5 -30.5t6.5 -29.5v-463q0 -14 -6.5 -30t-16.5 -30t-23.5 -23.5t-26.5 -9.5h-576zM611 509h-400v-368h400v368zM199 735v115l14 10h134
l13 -10v-116l-9 -14h-138zM461 735v115l14 10h134l14 -10v-116l-9 -14h-139z" />
    <glyph glyph-name="FL00F7h" unicode="&#xf7;" horiz-adv-x="560" 
d="M199 454v116l14 10h134l13 -10v-117l-9 -13h-138zM200 84v116l14 10h134l13 -10v-117l-9 -14h-138zM511 384v-119l-10 -11h-442l-9 11v119l9 11h442z" />
    <glyph glyph-name="FL00F8h" unicode="&#xf8;" 
d="M123 0q-14 0 -27 9.5t-23 23.5t-16.5 30t-6.5 30v463q0 13 6.5 29.5t16.5 30.5t23 23.5t27 9.5h576q13 0 26.5 -9.5t23.5 -23.5t16.5 -30.5t6.5 -29.5v-463q0 -14 -6.5 -30t-16.5 -30t-23.5 -23.5t-26.5 -9.5h-576zM611 509h-130v-368h130v368zM341 509h-130v-368h130
v368z" />
    <glyph glyph-name="FL00F9h" unicode="&#xf9;" 
d="M437 850l64 -115l-10 -15h-137l-13 10l-76 116l9 14h140zM123 0q-14 0 -27 9.5t-23 23.5t-16.5 30t-6.5 30v547l13 9h134l14 -9v-499h400v499l14 9h133l14 -9v-547q0 -14 -6.5 -30t-16.5 -30t-23.5 -23.5t-26.5 -9.5h-576z" />
    <glyph glyph-name="FL00FAh" unicode="&#xfa;" 
d="M123 0q-14 0 -27 9.5t-23 23.5t-16.5 30t-6.5 30v547l13 9h134l14 -9v-499h400v499l14 9h133l14 -9v-547q0 -14 -6.5 -30t-16.5 -30t-23.5 -23.5t-26.5 -9.5h-576zM321 735l64 115l23 10h139l9 -14l-75 -116l-14 -10h-136z" />
    <glyph glyph-name="FL00FBh" unicode="&#xfb;" 
d="M123 0q-14 0 -27 9.5t-23 23.5t-16.5 30t-6.5 30v547l13 9h134l14 -9v-499h400v499l14 9h133l14 -9v-547q0 -14 -6.5 -30t-16.5 -30t-23.5 -23.5t-26.5 -9.5h-576zM451 730l-42 57l-39 -58l-20 -9h-137l-14 15l77 115l14 10h244l13 -10l76 -116l-9 -14h-140z" />
    <glyph glyph-name="FL00DCh" unicode="&#xfc;" 
d="M199 735v115l14 10h134l13 -10v-116l-9 -14h-138zM461 735v115l14 10h134l14 -10v-116l-9 -14h-139zM123 0q-14 0 -27 9.5t-23 23.5t-16.5 30t-6.5 30v547l13 9h134l14 -9v-499h400v499l14 9h133l14 -9v-547q0 -14 -6.5 -30t-16.5 -30t-23.5 -23.5t-26.5 -9.5h-576z" />
    <glyph glyph-name="FL00FDh" unicode="&#xfd;" horiz-adv-x="741" 
d="M272 735l65 115l22 10h140l9 -14l-75 -116l-14 -10h-137zM488 381v-111l-14 -15h-350q-14 0 -27 9.5t-23 24t-16.5 30.5t-6.5 29v292l13 9h134l14 -9v-244h262zM618 0h-560l-8 14v113l9 14h471v499l14 9h133l14 -9v-547q0 -14 -6.5 -30t-17 -30t-23.5 -23.5t-26 -9.5z
" />
    <glyph glyph-name="FL00FEh" unicode="&#xfe;" horiz-adv-x="761" 
d="M550 259v136h-339v-385l-14 -10h-134l-13 10v630l13 9h134l14 -9v-104h428q13 0 26 -9.5t23.5 -23.5t17 -30.5t6.5 -29.5v-231q0 -14 -6.5 -30t-17 -30t-23.5 -23.5t-26 -9.5h-377l-10 11v118l10 11h288z" />
    <glyph glyph-name="FL00FFh" unicode="&#xff;" horiz-adv-x="741" 
d="M158 735v115l14 10h134l14 -10v-116l-9 -14h-139zM421 735v115l14 10h133l14 -10v-116l-9 -14h-138zM488 381v-111l-14 -15h-350q-14 0 -27 9.5t-23 24t-16.5 30.5t-6.5 29v292l13 9h134l14 -9v-244h262zM618 0h-560l-8 14v113l9 14h471v499l14 9h133l14 -9v-547
q0 -14 -6.5 -30t-17 -30t-23.5 -23.5t-26 -9.5z" />
    <glyph glyph-name="FL0152h" unicode="&#x152;" horiz-adv-x="1207" 
d="M1148 0h-1025q-14 0 -27 9.5t-23 23.5t-16.5 30t-6.5 30v463q0 13 6.5 29.5t16.5 30.5t23 23.5t27 9.5h1025l9 -13v-113l-10 -14h-462v-368h462l10 -14v-113zM211 509v-368h313v368h-313zM1095 384v-119l-10 -11h-348l-10 11v119l10 11h348z" />
    <glyph glyph-name="FL0153h" unicode="&#x153;" horiz-adv-x="1207" 
d="M1148 0h-1025q-14 0 -27 9.5t-23 23.5t-16.5 30t-6.5 30v463q0 13 6.5 29.5t16.5 30.5t23 23.5t27 9.5h1025l9 -13v-113l-10 -14h-462v-368h462l10 -14v-113zM211 509v-368h313v368h-313zM1095 384v-119l-10 -11h-348l-10 11v119l10 11h348z" />
    <glyph glyph-name="FL0160h" unicode="&#x160;" horiz-adv-x="735" 
d="M327 850l42 -57l39 58l20 9h137l14 -15l-77 -115l-14 -10h-243l-14 10l-76 116l9 14h140zM50 347v209q0 13 6.5 29.5t16.5 30.5t23 23.5t27 9.5h553l9 -13v-113l-10 -14h-464v-114h401q13 0 26 -9.5t23.5 -23.5t17 -30.5t6.5 -29.5v-209q0 -14 -6.5 -30t-17 -30
t-23.5 -23.5t-26 -9.5h-554l-8 14v113l9 14h465v113h-401q-14 0 -27 9.5t-23 24t-16.5 30.5t-6.5 29z" />
    <glyph glyph-name="FL0161h" unicode="&#x161;" horiz-adv-x="735" 
d="M327 850l42 -57l39 58l20 9h137l14 -15l-77 -115l-14 -10h-243l-14 10l-76 116l9 14h140zM50 347v209q0 13 6.5 29.5t16.5 30.5t23 23.5t27 9.5h553l9 -13v-113l-10 -14h-464v-114h401q13 0 26 -9.5t23.5 -23.5t17 -30.5t6.5 -29.5v-209q0 -14 -6.5 -30t-17 -30
t-23.5 -23.5t-26 -9.5h-554l-8 14v113l9 14h465v113h-401q-14 0 -27 9.5t-23 24t-16.5 30.5t-6.5 29z" />
    <glyph glyph-name="FL0178h" unicode="&#x178;" horiz-adv-x="741" 
d="M158 735v115l14 10h134l14 -10v-116l-9 -14h-139zM421 735v115l14 10h133l14 -10v-116l-9 -14h-138zM488 381v-111l-14 -15h-350q-14 0 -27 9.5t-23 24t-16.5 30.5t-6.5 29v292l13 9h134l14 -9v-244h262zM618 0h-560l-8 14v113l9 14h471v499l14 9h133l14 -9v-547
q0 -14 -6.5 -30t-17 -30t-23.5 -23.5t-26 -9.5z" />
    <glyph glyph-name="FL017Dh" unicode="&#x17d;" horiz-adv-x="681" 
d="M300 850l43 -57l38 58l20 9h138l13 -15l-77 -115l-14 -10h-243l-14 10l-75 116l9 14h139zM632 635v-127l-14 -10l-341 -343l9 -14h336l10 -14v-113l-9 -14h-560l-13 15v126l13 9l344 344l-9 15h-339l-9 14v113l8 13h560z" />
    <glyph glyph-name="FL017Eh" unicode="&#x17e;" horiz-adv-x="681" 
d="M300 850l43 -57l38 58l20 9h138l13 -15l-77 -115l-14 -10h-243l-14 10l-75 116l9 14h139zM632 635v-127l-14 -10l-341 -343l9 -14h336l10 -14v-113l-9 -14h-560l-13 15v126l13 9l344 344l-9 15h-339l-9 14v113l8 13h560z" />
    <glyph glyph-name="FL00A8h" unicode="&#x192;" horiz-adv-x="783" 
d="M572 640l14 9h134l14 -9v-626l-9 -14h-139l-14 15v625zM50 640l13 9h134l14 -9v-626l-9 -14h-139l-13 15v625zM522 395l10 -11v-119l-10 -11h-260l-10 11v119l10 11h260z" />
    <glyph glyph-name="FL02C6h" unicode="&#x2c6;" horiz-adv-x="523" 
d="M302 730l-43 57l-38 -58l-20 -9h-138l-13 15l77 115l14 10h243l14 -10l75 -116l-9 -14h-139z" />
    <glyph glyph-name="FL02DCh" unicode="&#x2dc;" horiz-adv-x="587" 
d="M348 850l43 -57l39 58l19 9h138l14 -15l-77 -115l-14 -10h-185l-23 10l-43 57l-38 -58l-20 -9h-138l-13 15l77 115l14 10h185z" />
    <glyph glyph-name="FL2013h" unicode="&#x2013;" horiz-adv-x="444" 
d="M394 384v-119l-10 -11h-325l-9 11v119l9 11h325z" />
    <glyph glyph-name="FL2014h" unicode="&#x2014;" horiz-adv-x="540" 
d="M490 384v-119l-10 -11h-421l-9 11v119l9 11h421z" />
    <glyph glyph-name="FL2018h" unicode="&#x2018;" horiz-adv-x="260" 
d="M211 635v-204l-14 -10h-134l-13 10v125q0 13 7 29t17.5 30t23.5 24t25 10h74z" />
    <glyph glyph-name="FL2019h" unicode="&#x2019;" horiz-adv-x="260" 
d="M50 436v204l13 9h134l14 -9v-126q0 -13 -7 -29t-18 -30.5t-23.5 -24t-24.5 -9.5h-75z" />
    <glyph glyph-name="FL201Ah" unicode="&#x201a;" horiz-adv-x="260" 
d="M50 -68v199l13 10h134l14 -10v-121q0 -13 -7 -29t-18 -30.5t-23.5 -24t-24.5 -9.5h-75z" />
    <glyph glyph-name="FL201Ch" unicode="&#x201c;" horiz-adv-x="472" 
d="M211 634v-204l-14 -10h-134l-13 10v125q0 13 7 29t17.5 30t23.5 24t25 10h74zM423 634v-204l-14 -10h-134l-14 10v125q0 13 7 29t18 30t24 24t25 10h74z" />
    <glyph glyph-name="FL201Dh" unicode="&#x201d;" horiz-adv-x="472" 
d="M261 436v204l14 9h134l14 -9v-126q0 -13 -7 -29t-18 -30.5t-24 -24t-25 -9.5h-74zM50 436v204l13 9h134l14 -9v-126q0 -13 -7 -29t-18 -30.5t-23.5 -24t-24.5 -9.5h-75z" />
    <glyph glyph-name="FL201Eh" unicode="&#x201e;" horiz-adv-x="472" 
d="M261 -68v199l14 10h134l14 -10v-121q0 -13 -7 -29t-18 -30.5t-24 -24t-25 -9.5h-74zM50 -68v199l13 10h134l14 -10v-121q0 -13 -7 -29t-18 -30.5t-23.5 -24t-24.5 -9.5h-75z" />
    <glyph glyph-name="FL2020h" unicode="&#x2020;" horiz-adv-x="496" 
d="M59 524h108v116l14 9h134l14 -9v-116h108l10 -11v-119l-10 -11h-108v-369l-9 -14h-139l-14 15v368h-108l-9 11v119z" />
    <glyph glyph-name="FL2021h" unicode="&#x2021;" horiz-adv-x="496" 
d="M59 524h108v116l14 9h134l14 -9v-116h108l10 -11v-119l-10 -11h-108v-117h108l10 -11v-118l-10 -11h-108v-112l-9 -14h-139l-14 15v111h-108l-9 11v118l9 11h108v117h-108l-9 11v119z" />
    <glyph glyph-name="FL2022h" unicode="&#x2022;" 
d="M123 0q-14 0 -27 9.5t-23 23.5t-16.5 30t-6.5 30v463q0 13 6.5 29.5t16.5 30.5t23 23.5t27 9.5h576q13 0 26.5 -9.5t23.5 -23.5t16.5 -30.5t6.5 -29.5v-463q0 -14 -6.5 -30t-16.5 -30t-23.5 -23.5t-26.5 -9.5h-576z" />
    <glyph glyph-name="FL2026h" unicode="&#x2026;" horiz-adv-x="722" 
d="M511 15v116l14 10h133l14 -10v-117l-9 -14h-138zM280 15v116l14 10h134l14 -10v-117l-9 -14h-139zM50 15v116l13 10h134l14 -10v-117l-9 -14h-139z" />
    <glyph glyph-name="FL2030h" unicode="&#x2030;" horiz-adv-x="1538" 
d="M209 19l486 621l14 9h170l14 -14l-486 -620l-14 -15h-175zM696 -50q-8 0 -15 5.5t-12.5 13t-9 16.5t-3.5 17v250q0 7 3.5 16.5t9 17t12.5 13t15 5.5h313q7 0 14.5 -5.5t13 -13t9 -17t3.5 -16.5v-250q0 -8 -3.5 -17t-9 -17t-13 -13t-14.5 -5h-313zM915 181h-125v-108h125
v108zM89 346q-8 0 -15 5t-12 13t-8.5 16.5t-3.5 16.5v250q0 7 3.5 16.5t8.5 17t12 13t15 5.5h313q7 0 14.5 -5.5t13.5 -13t9.5 -17t3.5 -16.5v-250q0 -8 -3.5 -17t-9.5 -16.5t-13.5 -12.5t-14.5 -5h-313zM308 576h-125v-108h125v108zM1135 -51q-8 0 -15 5t-12.5 13t-9 16.5
t-3.5 16.5v250q0 7 3.5 16.5t9 17t12.5 13t15 5.5h312q7 0 14.5 -5.5t13.5 -13t9.5 -17t3.5 -16.5v-250q0 -8 -3.5 -17t-9.5 -16.5t-13.5 -12.5t-14.5 -5h-312zM1353 179h-124v-108h124v108z" />
    <glyph glyph-name="FL2039h" unicode="&#x2039;" horiz-adv-x="512" 
d="M35 327l245 313l14 9h170l14 -14l-241 -308l241 -308l-9 -19h-175l-14 15z" />
    <glyph glyph-name="FL203Ah" unicode="&#x203a;" horiz-adv-x="511" 
d="M233 640l244 -313l-244 -312l-14 -15h-175l-9 19l240 308l-240 308l14 14h170z" />
    <glyph glyph-name="FL20ACh" unicode="&#x20ac;" horiz-adv-x="833" 
d="M61 462h99v94q0 13 6.5 29.5t17 30.5t23.5 23.5t27 9.5h476q13 0 26 -9.5t23.5 -23.5t17 -30.5t6.5 -29.5v-90l-9 -14h-138l-14 15v42h-300v-47h212l12 -9v-92l-12 -8h-212v-57h212l12 -9v-92l-12 -8h-212v-46h300v41l14 15h138l9 -14v-90q0 -14 -6.5 -30t-17 -30
t-23.5 -23.5t-26 -9.5h-476q-14 0 -27 9.5t-23.5 23.5t-17 30t-6.5 30v94h-99l-11 8v92l11 9h99v57h-99l-11 8v92z" />
    <glyph glyph-name="FL2122h" unicode="&#x2122;" horiz-adv-x="340" 
d="M167 567v131q1 3 5 3q6 0 6 1v1q5 0 16 -12.5t17 -26.5l1 -7q6 -17 9.5 -28.5t6.5 -21.5q4 11 6.5 21t5.5 24q9 31 20 41t25 10h5v-136h-14v88l-6 9l-31 -89q-2 -6 -3.5 -7t-7.5 -1q-3 0 -5 1t-5 7l-32 87l-5 -7v-88h-14zM80 567v114h-45v22h110v-22h-45v-114h-20z" />
    </font>
</defs>
</svg>
